<?xml version="1.0" encoding="UTF-8" standalone="no"?>
<!-- Created with Inkscape (http://www.inkscape.org/) -->

<svg
   width="1920mm"
   height="148.63972mm"
   viewBox="0 0 1920 148.63972"
   version="1.1"
   id="svg1102"
   inkscape:version="1.1 (c68e22c387, 2021-05-23)"
   sodipodi:docname="Logo de Chedraui (texto).svg"
   xmlns:inkscape="http://www.inkscape.org/namespaces/inkscape"
   xmlns:sodipodi="http://sodipodi.sourceforge.net/DTD/sodipodi-0.dtd"
   xmlns="http://www.w3.org/2000/svg"
   xmlns:svg="http://www.w3.org/2000/svg">
  <sodipodi:namedview
     id="namedview1104"
     pagecolor="#ffffff"
     bordercolor="#666666"
     borderopacity="1.0"
     inkscape:pageshadow="2"
     inkscape:pageopacity="0.0"
     inkscape:pagecheckerboard="0"
     inkscape:document-units="mm"
     showgrid="false"
     fit-margin-top="0"
     fit-margin-left="0"
     fit-margin-right="0"
     fit-margin-bottom="0"
     inkscape:zoom="0.067559798"
     inkscape:cx="4107.4723"
     inkscape:cy="2716.1123"
     inkscape:window-width="1920"
     inkscape:window-height="1017"
     inkscape:window-x="1912"
     inkscape:window-y="-8"
     inkscape:window-maximized="1"
     inkscape:current-layer="layer1" />
  <defs
     id="defs1099" />
  <g
     inkscape:label="Logo"
     inkscape:groupmode="layer"
     id="layer1"
     transform="translate(54.098582,-115.14822)">
    <path
       id="path26"
       style="fill:#154281;fill-opacity:1;fill-rule:nonzero;stroke:none;stroke-width:0.192484"
       d="m 1277.4719,263.1637 90.6218,-132.68296 h 45.7305 l 88.9432,132.68296 h 20.5594 L 1419.2791,115.36783 h -55.8012 L 1260.2695,263.1637 h 17.2024" />
    <path
       id="path32"
       style="fill:#154281;fill-opacity:1;fill-rule:nonzero;stroke:none;stroke-width:0.192484"
       d="m 1550.727,216.2456 c 0,25.1922 19.2965,47.02711 44.8893,47.02711 h 135.515 c 23.9124,0 46.1483,-16.79731 46.1483,-41.56845 V 115.47314 h -19.2986 v 105.39129 c 0,13.8589 -10.0689,26.03203 -24.332,26.03203 h -138.0327 c -14.6847,0 -26.0105,-12.59424 -26.0105,-27.29373 V 115.47314 H 1550.727 V 216.2456" />
    <path
       id="path34"
       style="fill:#154281;fill-opacity:1;fill-rule:nonzero;stroke:none;stroke-width:0.192484"
       d="m 1235.976,217.1855 c 0,-12.59196 -3.7746,-16.37254 -6.7158,-17.63201 l -2.9354,-1.25942 3.7766,-2.51882 c 6.7119,-4.62042 5.8746,-15.95509 5.8746,-17.21237 v -23.94027 c 0,-21.41243 -17.6239,-39.04422 -39.0166,-39.04422 h -184.1809 v 147.37475 l 18.8789,-0.41904 V 131.11225 h 160.6862 c 13.4219,0 25.1693,10.49637 25.1693,24.35008 v 23.94027 c 0,6.71425 -3.3531,15.1129 -7.1316,17.21084 l -2.9353,1.68036 2.5157,2.09924 c 3.7766,3.35942 6.7158,7.13772 6.7158,16.79218 v 45.34888 h 19.2985 v -45.34888" />
    <path
       id="path36"
       style="fill:#154281;fill-opacity:1;fill-rule:nonzero;stroke:none;stroke-width:0.727499"
       d="M 3013.0547 1.3417969 L 3014.6484 558.35742 L 3677.4531 558.35742 C 3761.4939 558.35742 3843.9551 501.21457 3843.9551 412.35156 L 3843.9551 147.32422 C 3843.9551 56.875362 3759.9083 1.3417969 3674.2812 1.3417969 L 3013.0547 1.3417969 z M 3079.5781 60.615234 L 3674.1934 60.615234 C 3724.9292 60.615234 3775.6797 93.927274 3775.6797 147.89258 L 3775.6797 403.39844 C 3775.6797 458.92733 3728.1085 500.19727 3674.1934 500.19727 L 3079.5781 500.19727 L 3079.5781 60.615234 z "
       transform="matrix(0.26458333,0,0,0.26458333,-54.098582,115.14822)" />
    <path
       id="path38"
       style="fill:#154281;fill-opacity:1;fill-rule:nonzero;stroke:none;stroke-width:0.192484"
       d="M 693.44641,263.1374 V 247.17844 H 492.90434 V 131.29438 h 200.54207 v -15.5356 H 476.12544 V 263.1374 h 217.32097" />
    <path
       id="path40"
       style="fill:#154281;fill-opacity:1;fill-rule:nonzero;stroke:none;stroke-width:0.192484"
       d="m -36.895304,221.50118 c 0.418877,-7.55637 0,-66.76426 0,-68.02367 1.2602,-13.43255 5.451168,-22.6695 25.592189,-22.6695 H 161.55159 v -15.5343 H -10.884271 c -22.236409,0 -43.214311,15.5343 -43.214311,38.62491 v 67.60256 c 0,22.67719 18.880014,41.14745 41.537576,41.14745 H 161.55159 V 247.11078 H -12.561006 c -14.266387,-0.41904 -24.334298,-12.17318 -24.334298,-25.6096" />
    <path
       id="path42"
       style="fill:#154281;fill-opacity:1;fill-rule:nonzero;stroke:none;stroke-width:0.192484"
       d="m 1472.9824,263.1637 h 20.9751 l -28.5301,-40.30893 H 1314.812 l -27.6909,39.8901 h 21.8181 l 14.2632,-24.35237 h 132.9954 l 16.7846,24.7712" />
    <path
       id="path46"
       style="fill:#154281;fill-opacity:1;fill-rule:nonzero;stroke:none;stroke-width:0.192484"
       d="M 502.40537,184.68638 H 693.71782 V 167.04919 H 518.7685 V 154.87071 H 693.71782 V 139.75775 H 502.40537 v 44.92863" />
    <path
       id="path48"
       style="fill:#154281;fill-opacity:1;fill-rule:nonzero;stroke:none;stroke-width:0.192484"
       d="m 501.56615,193.92181 v 44.08722 l 192.15167,0.42123 v -16.3762 L 518.7685,222.47365 V 208.61939 H 693.71782 V 193.92203 H 501.56615" />
    <path
       id="path50"
       style="fill:#154281;fill-opacity:1;fill-rule:nonzero;stroke:none;stroke-width:0.192484"
       d="m -27.247007,221.08023 c 0.419641,8.81966 5.873859,17.21602 14.266387,17.63561 h 174.53221 v -16.3762 H -12.142926 V 154.73692 H 161.55159 V 139.6238 H -12.561006 c -9.230986,0 -14.686001,5.45887 -14.686001,15.11312 v 66.34331" />
    <path
       id="path54"
       style="fill:#154281;fill-opacity:1;fill-rule:nonzero;stroke:none;stroke-width:0.192484"
       d="M 1731.1313,222.54272 H 1594.3594 V 115.47314 h -16.3631 v 105.81017 c 0,9.23848 6.7099,17.63714 16.3631,17.63714 h 136.7719 c 9.6493,0 18.0397,-7.55807 18.0397,-17.21619 V 115.47314 h -18.0397 v 107.06958" />
    <path
       id="path56"
       style="fill:#154281;fill-opacity:1;fill-rule:nonzero;stroke:none;stroke-width:0.192484"
       d="m 1039.3895,262.81259 h 19.2985 v -45.34893 h 131.3169 v 45.76769 h 19.7201 v -46.18657 c 0,-10.49484 -9.6532,-15.11291 -19.7201,-15.11291 h -150.6154 v 60.88072" />
    <path
       id="path58"
       style="fill:#154281;fill-opacity:1;fill-rule:nonzero;stroke:none;stroke-width:0.727499"
       d="M 4133.8066 94.111328 L 4133.8066 302.00391 L 4704.6328 302.00391 C 4741.1094 302.00391 4776.0078 278.19556 4776.0078 240.11523 L 4776.0078 163.93555 C 4776.0078 125.85526 4745.8754 94.111328 4707.8125 94.111328 L 4133.8066 94.111328 z M 4206.1504 150.25195 L 4704.0508 150.25195 L 4702.4805 243.9043 L 4206.1504 243.9043 L 4206.1504 150.25195 z "
       transform="matrix(0.26458333,0,0,0.26458333,-54.098582,115.14822)" />
    <path
       id="path62"
       style="fill:#154281;fill-opacity:1;fill-rule:nonzero;stroke:none;stroke-width:0.727499"
       d="M 3112.5762 93.927734 L 3112.5762 468.45312 L 3675.4961 468.45312 C 3710.3798 468.45312 3743.6777 443.07065 3743.6777 406.57617 L 3743.6777 147.89258 C 3743.6777 112.9668 3708.7939 93.927734 3677.082 93.927734 L 3112.5762 93.927734 z M 3181.2168 150.48438 L 3674.3613 150.48438 L 3674.3613 405.99219 L 3181.2168 405.99219 L 3181.2168 150.48438 z "
       transform="matrix(0.26458333,0,0,0.26458333,-54.098582,115.14822)" />
    <path
       id="path66"
       style="fill:#154281;fill-opacity:1;fill-rule:nonzero;stroke:none;stroke-width:0.192484"
       d="m 237.16534,185.27135 h 165.302 V 115.5707 l -15.94351,0.42122 v 50.80535 H 253.11077 v -50.80535 h -15.94543 v 69.27948" />
    <path
       id="path68"
       style="fill:#154281;fill-opacity:1;fill-rule:nonzero;stroke:none;stroke-width:0.192484"
       d="m 237.16534,193.67 v 69.69672 h 15.94543 v -55.00105 h 133.41306 v 55.42211 l 15.94351,-0.42122 V 193.67 h -165.302" />
    <path
       id="path74"
       style="fill:#154281;fill-opacity:1;fill-rule:nonzero;stroke:none;stroke-width:0.727499"
       d="M 5391.0742 92.869141 L 5200.7891 370.58984 L 5720.8945 370.58984 L 5535.3672 92.869141 L 5391.0742 92.869141 z M 5417.3223 147.96484 L 5507.7148 147.96484 L 5606.0137 301.91797 L 5323.7812 301.91797 L 5417.3223 147.96484 z "
       transform="matrix(0.26458333,0,0,0.26458333,-54.098582,115.14822)" />
    <path
       id="path90"
       style="fill:#154281;fill-opacity:1;fill-rule:nonzero;stroke:none;stroke-width:0.192484"
       d="M 1848.2794,115.56704 V 262.9479 h 17.622 V 115.56704 h -17.622" />
    <path
       id="path92"
       style="fill:#154281;fill-opacity:1;fill-rule:nonzero;stroke:none;stroke-width:0.192484"
       d="M 1837.3694,262.9479 V 115.14822 h -18.4574 l 0.4195,147.79968 h 18.0378" />
    <path
       id="path94"
       style="fill:#154281;fill-opacity:1;fill-rule:nonzero;stroke:none;stroke-width:0.192484"
       d="M 229.61416,263.78778 V 115.99187 h -15.9435 v 147.37485 l 15.9435,0.42123" />
    <path
       id="path96"
       style="fill:#154281;fill-opacity:1;fill-rule:nonzero;stroke:none;stroke-width:0.192484"
       d="m 412.1166,115.5707 v 146.95762 h 14.68657 V 115.5707 H 412.1166" />
  </g>
</svg>
