<?xml version="1.0" encoding="utf-8"?>
<!-- Generator: Adobe Adobe Illustrator 24.2.0, SVG Export Plug-In . SVG Version: 6.00 Build 0)  -->
<svg version="1.1" id="Layer_1" xmlns="http://www.w3.org/2000/svg" xmlns:xlink="http://www.w3.org/1999/xlink" x="0px" y="0px"
	 width="982.25px" height="215.25px" viewBox="0 0 982.25 215.25" style="enable-background:new 0 0 982.25 215.25;"
	 xml:space="preserve">
<style type="text/css">
	.st0{fill:#FDBB30;}
	.st1{fill:#007DC3;}
</style>
<g>
	<path class="st0" d="M977.28,109.9h0.46c0.55,0,0.8,0.2,0.88,0.66c0.13,0.48,0.2,0.84,0.33,1h1.05c-0.09-0.13-0.18-0.39-0.3-1.03
		c-0.13-0.56-0.37-0.9-0.77-1.02v-0.05c0.5-0.14,0.87-0.51,0.87-1c0-0.38-0.18-0.71-0.41-0.89c-0.31-0.21-0.67-0.33-1.46-0.33
		c-0.69,0-1.23,0.07-1.62,0.15v4.18h0.98V109.9z M977.31,108.01c0.1-0.04,0.27-0.06,0.53-0.06c0.61,0,0.91,0.26,0.91,0.65
		c0,0.43-0.43,0.61-0.98,0.61h-0.45V108.01z M977.95,105.18c-2.42,0-4.33,1.87-4.33,4.2c0,2.38,1.91,4.23,4.33,4.23
		c2.43,0,4.3-1.85,4.3-4.23c0-2.33-1.88-4.2-4.27-4.2H977.95z M977.95,106.02c1.87,0,3.23,1.52,3.23,3.36c0,1.87-1.37,3.38-3.2,3.36
		c-1.9,0-3.29-1.49-3.29-3.36c0-1.84,1.38-3.36,3.23-3.36H977.95z"/>
	<path class="st1" d="M730.6,76.55c0-14.21-6.07-26.71-26.6-26.71c-10.53,0-18.9,2.96-23.47,5.6l3.36,11.41
		c4.16-2.63,10.81-4.8,17.1-4.8c10.41-0.03,12.12,5.89,12.12,9.68v0.9c-22.72-0.04-37.05,7.82-37.05,23.81
		c0,9.77,7.31,18.94,20.01,18.94c7.8,0,14.34-3.12,18.26-8.11h0.38c0,0,2.59,10.84,16.89,6.69c-0.75-4.51-1-9.31-1-15.11V76.55z
		 M713.66,91.55c0,1.17-0.1,2.35-0.42,3.39c-1.31,4.35-5.82,8.02-11.45,8.02c-4.69,0-8.43-2.66-8.43-8.29c0-8.62,9.5-11,20.3-10.94
		V91.55z"/>
	<path class="st1" d="M383.14,30.49c0,0,14.83,60.74,17.2,70.59c2.76,11.5,7.74,15.74,22.09,12.88l9.26-37.66
		c2.35-9.35,3.93-16.01,5.43-25.52h0.27c1.07,9.61,2.57,16.2,4.5,25.55c0,0,3.77,17.09,5.7,26.07c1.94,8.98,7.31,14.63,21.38,11.55
		l22.07-83.47h-17.82l-7.54,36.09c-2.03,10.5-3.86,18.72-5.28,28.33h-0.25c-1.28-9.52-2.92-17.4-4.98-27.63l-7.85-36.78h-18.56
		l-8.4,35.85c-2.38,10.9-4.6,19.7-6.02,28.97h-0.25c-1.44-8.73-3.37-19.8-5.46-30.34c0,0-4.99-25.64-6.73-34.48H383.14z"/>
	<path class="st1" d="M540.64,76.55c0-14.21-6.08-26.71-26.6-26.71c-10.54,0-18.91,2.96-23.48,5.6l3.34,11.41
		c4.18-2.63,10.81-4.8,17.11-4.8c10.41-0.03,12.12,5.89,12.12,9.68v0.9c-22.71-0.04-37.06,7.82-37.06,23.81
		c0,9.77,7.31,18.94,20,18.94c7.83,0,14.35-3.12,18.28-8.11h0.38c0,0,2.6,10.84,16.89,6.69c-0.75-4.51-0.99-9.31-0.99-15.11V76.55z
		 M523.7,91.55c0,1.17-0.1,2.35-0.42,3.39c-1.32,4.35-5.83,8.02-11.45,8.02c-4.7,0-8.43-2.66-8.43-8.29c0-8.62,9.5-11,20.3-10.94
		V91.55z"/>
	<polygon class="st1" points="566.86,96.24 566.86,30.49 549.89,30.49 549.89,113.96 566.86,113.96 	"/>
	<path class="st1" d="M782.6,30.49v61.58c0,8.48,1.61,14.44,5.03,18.07c2.99,3.18,7.92,5.24,13.82,5.24c5.01,0,9.95-0.95,12.28-1.82
		l-0.22-13.24c-1.73,0.41-3.73,0.75-6.44,0.75c-5.78,0-7.72-3.69-7.72-11.31V66.2h14.78V50.23h-14.78V30.49H782.6z"/>
	<path class="st1" d="M738.82,51.26v62.7h17.5v-32.1c0-1.74,0.11-3.25,0.38-4.63c1.29-6.73,6.45-11.03,13.84-11.03
		c2.03,0,3.48,0.22,5.05,0.45V50.23c-1.32-0.27-2.22-0.39-3.85-0.39c-6.55,0-13.96,4.21-17.07,13.24h-0.49V51.26H738.82z"/>
	<path class="st1" d="M576.68,51.26v62.7h17.04V77.18c0-1.72,0.2-3.54,0.8-5.13c1.42-3.7,4.87-8.03,10.37-8.03
		c6.89,0,10.09,5.81,10.09,14.2v35.74h17.04V76.74c0-1.64,0.22-3.62,0.72-5.09c1.4-4.21,5.1-7.64,10.22-7.64
		c6.97,0,10.32,5.72,10.32,15.59v34.35h17.06V77.03c0-19.48-9.9-27.19-21.07-27.19c-4.95,0-8.86,1.24-12.39,3.4
		c-2.97,1.82-5.62,4.41-7.94,7.82h-0.25c-2.71-6.76-9.05-11.22-17.31-11.22c-10.62,0-15.38,5.37-18.27,9.94h-0.25v-8.52H576.68z"/>
	<path class="st0" d="M905.77,48.45c3.38,0,6.16-1.75,6.53-4.01l3.33-37.66c0-3.72-4.36-6.77-9.85-6.77c-5.48,0-9.84,3.06-9.84,6.77
		l3.31,37.66c0.38,2.26,3.16,4.01,6.53,4.01H905.77z"/>
	<path class="st0" d="M885.41,60.21c1.7-2.92,1.56-6.21-0.23-7.66l-30.96-21.7c-3.22-1.87-8.05,0.37-10.79,5.13
		c-2.74,4.74-2.25,10.04,0.96,11.89l34.3,15.96c2.14,0.8,5.05-0.73,6.74-3.65L885.41,60.21z"/>
	<path class="st0" d="M926.17,60.18c1.68,2.92,4.59,4.45,6.74,3.65l34.28-15.96c3.24-1.85,3.69-7.15,0.97-11.89
		c-2.75-4.76-7.6-7-10.8-5.13l-30.96,21.7c-1.77,1.45-1.9,4.74-0.22,7.66V60.18z"/>
	<path class="st0" d="M905.77,95.47c3.38,0,6.16,1.74,6.53,4.01l3.33,37.64c0,3.73-4.36,6.78-9.85,6.78c-5.48,0-9.84-3.04-9.84-6.78
		l3.31-37.64c0.38-2.27,3.16-4.01,6.53-4.01H905.77z"/>
	<path class="st0" d="M926.17,83.71c1.68-2.92,4.59-4.44,6.74-3.63l34.28,15.94c3.24,1.86,3.69,7.18,0.97,11.92
		c-2.75,4.74-7.6,6.98-10.8,5.12l-30.96-21.69C924.61,89.9,924.49,86.63,926.17,83.71L926.17,83.71z"/>
	<path class="st0" d="M885.41,83.71c1.7,2.92,1.56,6.2-0.23,7.66l-30.96,21.69c-3.22,1.85-8.05-0.39-10.79-5.12
		c-2.74-4.75-2.25-10.05,0.96-11.92l34.3-15.94c2.14-0.81,5.05,0.72,6.74,3.63L885.41,83.71z"/>
	<path class="st1" d="M47.97,173.05c-0.41-7.69-0.9-17.01-0.9-23.81H46.9c-1.97,6.39-4.18,13.34-6.96,20.94l-9.74,26.75h-5.4
		l-9-26.26c-2.63-7.85-4.75-14.88-6.3-21.44H9.33c-0.17,6.88-0.58,16.03-1.06,24.38l-1.47,23.63H0l3.85-55.12h9.08l9.41,26.66
		c2.29,6.79,4.09,12.85,5.57,18.56h0.17c1.47-5.56,3.43-11.61,5.89-18.56l9.82-26.66h9.09l3.43,55.12h-7.04L47.97,173.05z"/>
	<path class="st1" d="M71.52,178.77c0.16,9.73,6.3,13.74,13.59,13.74c5.16,0,8.35-0.9,10.97-2.05l1.31,5.16
		c-2.54,1.14-6.96,2.53-13.27,2.53c-12.2,0-19.48-8.1-19.48-20.04c0-11.94,7.04-21.27,18.58-21.27c13.01,0,16.37,11.29,16.37,18.57
		c0,1.47-0.08,2.53-0.24,3.35H71.52z M92.64,173.62c0.09-4.5-1.88-11.62-9.99-11.62c-7.36,0-10.47,6.63-11.05,11.62H92.64z
		 M94.27,140.58l-9.98,11.69h-5.08l7.2-11.69H94.27z"/>
	<path class="st1" d="M111.62,157.67l5.65,8.51c1.56,2.21,2.79,4.17,4.1,6.38h0.16c1.31-2.29,2.62-4.33,4.01-6.47l5.49-8.43h7.86
		l-13.51,19.14l13.84,20.45h-8.1l-5.9-8.92c-1.56-2.29-2.87-4.5-4.26-6.87h-0.17c-1.3,2.37-2.62,4.5-4.17,6.87l-5.73,8.92h-7.95
		l14.08-20.2l-13.42-19.39H111.62z"/>
	<path class="st1" d="M154.18,146.54c0,2.46-1.72,4.42-4.59,4.42c-2.62,0-4.33-1.96-4.33-4.42c0-2.45,1.8-4.5,4.5-4.5
		C152.38,142.05,154.18,144.01,154.18,146.54 M146.15,157.67h7.21v39.59h-7.21V157.67z"/>
	<path class="st1" d="M193.54,195.87c-1.88,0.9-6.06,2.29-11.38,2.29c-11.95,0-19.73-8.1-19.73-20.21c0-12.18,8.35-21.1,21.28-21.1
		c4.26,0,8.02,1.07,9.99,2.13l-1.64,5.49c-1.71-0.9-4.42-1.88-8.34-1.88c-9.09,0-14,6.79-14,14.97c0,9.16,5.9,14.8,13.76,14.8
		c4.09,0,6.79-0.98,8.84-1.88L193.54,195.87z"/>
	<path class="st1" d="M237.33,177.14c0,14.64-10.23,21.02-19.72,21.02c-10.64,0-18.99-7.85-18.99-20.37
		c0-13.17,8.75-20.94,19.64-20.94C229.63,156.85,237.33,165.11,237.33,177.14 M205.98,177.55c0,8.67,4.91,15.21,11.95,15.21
		c6.88,0,12.03-6.46,12.03-15.37c0-6.71-3.36-15.13-11.87-15.13C209.66,162.25,205.98,170.1,205.98,177.55"/>
	<path class="st1" d="M266.37,157.67l8.59,23.39c0.98,2.62,1.96,5.72,2.61,8.1h0.17c0.73-2.37,1.55-5.4,2.52-8.26l7.87-23.23h7.61
		l-10.8,28.22c-5.15,13.58-8.67,20.45-13.59,24.78c-3.6,3.03-7.04,4.25-8.84,4.58l-1.81-5.97c1.81-0.57,4.18-1.72,6.31-3.52
		c1.97-1.56,4.34-4.34,6.05-8.02c0.33-0.74,0.58-1.31,0.58-1.71c0-0.41-0.17-0.99-0.58-1.88l-14.57-36.48H266.37z"/>
	<path class="st1" d="M361.26,193.78c-2.54,1.31-7.87,2.62-14.57,2.62c-15.56,0-27.18-9.82-27.18-27.98
		c0-17.34,11.71-28.95,28.81-28.95c6.8,0,11.22,1.47,13.11,2.45l-1.8,5.81c-2.62-1.31-6.47-2.29-11.06-2.29
		c-12.93,0-21.52,8.25-21.52,22.74c0,13.58,7.77,22.16,21.11,22.16c4.42,0,8.84-0.9,11.7-2.29L361.26,193.78z"/>
	<path class="st1" d="M373.12,177.01c0.16,9.73,6.3,13.74,13.59,13.74c5.15,0,8.35-0.9,10.96-2.05l1.31,5.15
		c-2.54,1.15-6.96,2.53-13.26,2.53c-12.2,0-19.48-8.09-19.48-20.04c0-11.94,7.03-21.27,18.57-21.27c13.02,0,16.38,11.3,16.38,18.57
		c0,1.47-0.09,2.53-0.25,3.36H373.12z M394.23,171.86c0.08-4.5-1.88-11.61-9.98-11.61c-7.36,0-10.48,6.62-11.06,11.61H394.23z"/>
	<path class="st1" d="M410.11,166.62c0-4.18-0.08-7.44-0.33-10.71h6.38l0.41,6.53h0.17c1.96-3.68,6.54-7.36,13.1-7.36
		c5.48,0,13.99,3.28,13.99,16.85v23.56h-7.2v-22.82c0-6.38-2.38-11.69-9.18-11.69c-4.67,0-8.34,3.35-9.65,7.36
		c-0.33,0.9-0.5,2.13-0.5,3.35v23.8h-7.2V166.62z"/>
	<path class="st1" d="M463.87,146.42v9.49h10.31v5.48h-10.31v21.34c0,4.91,1.39,7.69,5.4,7.69c1.96,0,3.11-0.17,4.18-0.49l0.32,5.48
		c-1.39,0.49-3.6,0.98-6.38,0.98c-3.37,0-6.06-1.15-7.79-3.03c-1.96-2.21-2.78-5.72-2.78-10.39v-21.59h-6.13v-5.48h6.13v-7.36
		L463.87,146.42z"/>
	<path class="st1" d="M482.28,168.26c0-4.66-0.08-8.67-0.32-12.35h6.29l0.33,7.85h0.24c1.8-5.32,6.23-8.67,11.05-8.67
		c0.73,0,1.31,0.08,1.97,0.16v6.79c-0.74-0.16-1.48-0.16-2.46-0.16c-5.07,0-8.67,3.76-9.66,9.16c-0.17,0.98-0.24,2.21-0.24,3.35
		v21.1h-7.21V168.26z"/>
	<path class="st1" d="M544.07,175.37c0,14.63-10.23,21.01-19.72,21.01c-10.64,0-18.99-7.85-18.99-20.36
		c0-13.17,8.76-20.94,19.64-20.94C536.38,155.09,544.07,163.35,544.07,175.37 M512.72,175.78c0,8.67,4.91,15.21,11.95,15.21
		c6.88,0,12.04-6.46,12.04-15.38c0-6.71-3.36-15.13-11.88-15.13C516.41,160.49,512.72,168.34,512.72,175.78"/>
	<path class="st1" d="M580.98,186.01c0,3.44,0.17,6.79,0.58,9.49h-6.47l-0.57-5h-0.25c-2.21,3.11-6.46,5.9-12.11,5.9
		c-8.03,0-12.11-5.65-12.11-11.37c0-9.57,8.51-14.8,23.82-14.72v-0.81c0-3.2-0.91-9.17-9.01-9.09c-3.76,0-7.61,1.06-10.4,2.95
		l-1.63-4.83c3.28-2.05,8.11-3.44,13.1-3.44c12.11,0,15.06,8.26,15.06,16.11V186.01z M574.02,175.29
		c-7.85-0.16-16.78,1.23-16.78,8.92c0,4.74,3.1,6.87,6.71,6.87c5.24,0,8.59-3.27,9.73-6.62c0.25-0.82,0.33-1.64,0.33-2.29V175.29z"
		/>
	<path class="st1" d="M592.59,166.62c0-4.18-0.16-7.44-0.33-10.71h6.3l0.33,6.45h0.24c2.21-3.76,5.9-7.28,12.53-7.28
		c5.31,0,9.41,3.28,11.13,7.93h0.16c1.23-2.28,2.86-3.92,4.49-5.15c2.38-1.8,4.92-2.78,8.69-2.78c5.32,0,13.1,3.44,13.1,17.17v23.23
		h-7.05v-22.33c0-7.69-2.86-12.18-8.59-12.18c-4.18,0-7.28,3.02-8.59,6.46c-0.33,1.06-0.57,2.29-0.57,3.6v24.45h-7.04v-23.71
		c0-6.3-2.78-10.8-8.27-10.8c-4.41,0-7.78,3.6-8.92,7.2c-0.41,0.98-0.57,2.29-0.57,3.52v23.8h-7.04V166.62z"/>
	<path class="st1" d="M664.86,177.01c0.16,9.73,6.3,13.74,13.58,13.74c5.15,0,8.35-0.9,10.97-2.05l1.3,5.15
		c-2.53,1.15-6.95,2.54-13.26,2.54c-12.2,0-19.48-8.1-19.48-20.04c0-11.94,7.03-21.27,18.58-21.27c13.01,0,16.37,11.3,16.37,18.57
		c0,1.47-0.08,2.53-0.25,3.36H664.86z M685.97,171.86c0.08-4.5-1.89-11.62-9.99-11.62c-7.37,0-10.47,6.63-11.05,11.62H685.97z
		 M687.61,138.81l-9.99,11.69h-5.07l7.19-11.69H687.61z"/>
	<path class="st1" d="M701.84,168.26c0-4.66-0.07-8.67-0.32-12.35h6.3l0.33,7.85h0.24c1.8-5.32,6.23-8.67,11.05-8.67
		c0.74,0,1.31,0.08,1.97,0.16v6.79c-0.73-0.16-1.47-0.16-2.46-0.16c-5.07,0-8.68,3.76-9.65,9.16c-0.17,0.98-0.25,2.21-0.25,3.35
		v21.1h-7.21V168.26z"/>
	<path class="st1" d="M736.96,144.79c0,2.45-1.73,4.41-4.58,4.41c-2.63,0-4.34-1.97-4.34-4.41c0-2.46,1.8-4.5,4.51-4.5
		C735.15,140.28,736.96,142.25,736.96,144.79 M728.94,155.91h7.2v39.59h-7.2V155.91z"/>
	<path class="st1" d="M776.32,194.1c-1.88,0.9-6.05,2.29-11.38,2.29c-11.95,0-19.72-8.1-19.72-20.2c0-12.19,8.35-21.11,21.28-21.11
		c4.26,0,8.02,1.07,9.99,2.13l-1.64,5.48c-1.72-0.9-4.42-1.88-8.35-1.88c-9.08,0-14,6.78-14,14.96c0,9.17,5.89,14.8,13.75,14.8
		c4.09,0,6.79-0.98,8.85-1.88L776.32,194.1z"/>
	<path class="st1" d="M812.57,186.01c0,3.44,0.16,6.79,0.57,9.49h-6.46l-0.57-5h-0.25c-2.21,3.11-6.47,5.9-12.11,5.9
		c-8.02,0-12.12-5.65-12.12-11.37c0-9.57,8.51-14.8,23.82-14.72v-0.81c0-3.2-0.9-9.17-9-9.09c-3.76,0-7.61,1.06-10.39,2.95
		l-1.64-4.83c3.29-2.05,8.11-3.44,13.1-3.44c12.11,0,15.06,8.26,15.06,16.11V186.01z M805.61,175.29
		c-7.86-0.16-16.77,1.23-16.77,8.92c0,4.74,3.1,6.87,6.71,6.87c5.24,0,8.59-3.27,9.73-6.62c0.25-0.82,0.33-1.64,0.33-2.29V175.29z"
		/>
</g>
</svg>
